ffmpeg version N-111821-g67d392b979 Copyright (c) 2000-2023 the FFmpeg developers
  built with gcc 8 (GCC)
  configuration: --enable-shared --enable-libx264 --enable-gpl --extra-ldflags=-L/usr/local/lib
  libavutil      58. 17.100 / 58. 17.100
  libavcodec     60. 23.100 / 60. 23.100
  libavformat    60. 10.100 / 60. 10.100
  libavdevice    60.  2.101 / 60.  2.101
  libavfilter     9. 11.100 /  9. 11.100
  libswscale      7.  3.100 /  7.  3.100
  libswresample   4. 11.100 /  4. 11.100
  libpostproc    57.  2.100 / 57.  2.100
Input #0, mov,mp4,m4a,3gp,3g2,mj2, from 'public/b7093efd-3561-483e-8096-1791740c89e2-2023-09-08 16:56:40.321051158 +0800 CST m=+8.979432736':
  Metadata:
    major_brand     : isom
    minor_version   : 512
    compatible_brands: isomiso2avc1mp41
    encoder         : Lavf58.76.100
  Duration: 00:00:07.37, start: 0.000000, bitrate: 1215 kb/s
  Stream #0:0[0x1](und): Audio: aac (LC) (mp4a / 0x6134706D), 44100 Hz, stereo, fltp, 129 kb/s (default)
    Metadata:
      handler_name    : SoundHandler
      vendor_id       : [0][0][0][0]
  Stream #0:1[0x2](und): Video: h264 (High) (avc1 / 0x31637661), yuv420p(tv, bt709, progressive), 720x1280 [SAR 1:1 DAR 9:16], 1076 kb/s, 30 fps, 30 tbr, 15360 tbn (default)
    Metadata:
      handler_name    : VideoHandler
      vendor_id       : [0][0][0][0]
Stream mapping:
  Stream #0:1 -> #0:0 (h264 (native) -> h264 (libx264))
  Stream #0:0 -> #0:1 (aac (native) -> aac (native))
Press [q] to stop, [?] for help
[libx264 @ 0x1e1a300] using SAR=1/1
[libx264 @ 0x1e1a300] using cpu capabilities: MMX2 SSE2Fast SSSE3 SSE4.2 AVX FMA3 BMI2 AVX2 AVX512
[libx264 @ 0x1e1a300] profile High, level 3.1, 4:2:0, 8-bit
[libx264 @ 0x1e1a300] 264 - core 164 r3107 a8b68eb - H.264/MPEG-4 AVC codec - Copyleft 2003-2023 - http://www.videolan.org/x264.html - options: cabac=1 ref=3 deblock=1:0:0 analyse=0x3:0x113 me=hex subme=7 psy=1 psy_rd=1.00:0.00 mixed_ref=1 me_range=16 chroma_me=1 trellis=1 8x8dct=1 cqm=0 deadzone=21,11 fast_pskip=1 chroma_qp_offset=-2 threads=3 lookahead_threads=1 sliced_threads=0 nr=0 decimate=1 interlaced=0 bluray_compat=0 constrained_intra=0 bframes=3 b_pyramid=2 b_adapt=1 b_bias=0 direct=1 weightb=1 open_gop=0 weightp=2 keyint=250 keyint_min=25 scenecut=40 intra_refresh=0 rc_lookahead=40 rc=crf mbtree=1 crf=43.0 qcomp=0.60 qpmin=0 qpmax=69 qpstep=4 ip_ratio=1.40 aq=1:1.00
Output #0, mp4, to 'public/b7093efd-3561-483e-8096-1791740c89e2-2023-09-08 16:56:40.321051158 +0800 CST m=+8.979432736CMP.mp4':
  Metadata:
    major_brand     : isom
    minor_version   : 512
    compatible_brands: isomiso2avc1mp41
    encoder         : Lavf60.10.100
  Stream #0:0(und): Video: h264 (avc1 / 0x31637661), yuv420p(tv, bt709, progressive), 720x1280 [SAR 1:1 DAR 9:16], q=2-31, 30 fps, 15360 tbn (default)
    Metadata:
      handler_name    : VideoHandler
      vendor_id       : [0][0][0][0]
      encoder         : Lavc60.23.100 libx264
    Side data:
      cpb: bitrate max/min/avg: 0/0/0 buffer size: 0 vbv_delay: N/A
  Stream #0:1(und): Audio: aac (LC) (mp4a / 0x6134706D), 44100 Hz, stereo, fltp, 128 kb/s (default)
    Metadata:
      handler_name    : SoundHandler
      vendor_id       : [0][0][0][0]
      encoder         : Lavc60.23.100 aac
frame=    0 fps=0.0 q=0.0 size=       0kB time=00:00:00.00 bitrate=N/A speed=   0x    frame=    0 fps=0.0 q=0.0 size=       0kB time=00:00:01.53 bitrate=   0.3kbits/s speed=2.31x    frame=   20 fps= 17 q=49.0 size=       0kB time=00:00:02.22 bitrate=   0.2kbits/s speed= 1.9x    frame=   44 fps= 26 q=49.0 size=       0kB time=00:00:03.04 bitrate=   0.1kbits/s speed=1.78x    frame=   71 fps= 31 q=49.0 size=       0kB time=00:00:03.92 bitrate=   0.1kbits/s speed=1.73x    frame=  105 fps= 38 q=49.0 size=       0kB time=00:00:05.06 bitrate=   0.1kbits/s speed=1.83x    frame=  138 fps= 42 q=49.0 size=       0kB time=00:00:06.17 bitrate=   0.1kbits/s speed=1.89x    frame=  173 fps= 46 q=49.0 size=       0kB time=00:00:07.29 bitrate=   0.1kbits/s speed=1.93x    [out#0/mp4 @ 0x1e0b240] video:186kB audio:116kB subtitle:0kB other streams:0kB global headers:0kB muxing overhead: 2.976534%
frame=  221 fps= 53 q=-1.0 Lsize=     311kB time=00:00:07.33 bitrate= 346.7kbits/s speed=1.76x    
[libx264 @ 0x1e1a300] frame I:1     Avg QP:43.28  size:  4850
[libx264 @ 0x1e1a300] frame P:86    Avg QP:41.73  size:  1705
[libx264 @ 0x1e1a300] frame B:134   Avg QP:43.97  size:   284
[libx264 @ 0x1e1a300] consecutive B-frames: 15.8%  9.0%  2.7% 72.4%
[libx264 @ 0x1e1a300] mb I  I16..4: 20.2% 79.8%  0.0%
[libx264 @ 0x1e1a300] mb P  I16..4:  6.0% 10.5%  0.0%  P16..4: 14.0%  0.4%  0.1%  0.0%  0.0%    skip:69.0%
[libx264 @ 0x1e1a300] mb B  I16..4:  0.0%  0.0%  0.0%  B16..8:  8.0%  0.0%  0.0%  direct: 0.0%  skip:91.9%  L0:19.6% L1:80.3% BI: 0.1%
[libx264 @ 0x1e1a300] 8x8 transform intra:64.6% inter:99.6%
[libx264 @ 0x1e1a300] coded y,uvDC,uvAC intra: 2.4% 18.4% 0.2% inter: 0.2% 1.3% 0.0%
[libx264 @ 0x1e1a300] i16 v,h,dc,p: 43% 36%  6% 16%
[libx264 @ 0x1e1a300] i8 v,h,dc,ddl,ddr,vr,hd,vl,hu:  7%  2% 89%  0%  0%  0%  0%  0%  0%
[libx264 @ 0x1e1a300] i8c dc,h,v,p: 91%  7%  1%  0%
[libx264 @ 0x1e1a300] Weighted P-Frames: Y:12.8% UV:7.0%
[libx264 @ 0x1e1a300] ref P L0: 69.7%  7.5% 16.7%  5.5%  0.6%
[libx264 @ 0x1e1a300] ref B L0: 88.7%  9.6%  1.7%
[libx264 @ 0x1e1a300] ref B L1: 95.6%  4.4%
[libx264 @ 0x1e1a300] kb/s:205.82
[aac @ 0x1e700c0] Qavg: 1589.240
ffmpeg version N-111821-g67d392b979 Copyright (c) 2000-2023 the FFmpeg developers
  built with gcc 8 (GCC)
  configuration: --enable-shared --enable-libx264 --enable-gpl --extra-ldflags=-L/usr/local/lib
  libavutil      58. 17.100 / 58. 17.100
  libavcodec     60. 23.100 / 60. 23.100
  libavformat    60. 10.100 / 60. 10.100
  libavdevice    60.  2.101 / 60.  2.101
  libavfilter     9. 11.100 /  9. 11.100
  libswscale      7.  3.100 /  7.  3.100
  libswresample   4. 11.100 /  4. 11.100
  libpostproc    57.  2.100 / 57.  2.100
Input #0, mov,mp4,m4a,3gp,3g2,mj2, from 'public/b7093efd-3561-483e-8096-1791740c89e2-2023-09-08 16:56:40.321051158 +0800 CST m=+8.979432736CMP.mp4':
  Metadata:
    major_brand     : isom
    minor_version   : 512
    compatible_brands: isomiso2avc1mp41
    encoder         : Lavf60.10.100
  Duration: 00:00:07.37, start: 0.000000, bitrate: 345 kb/s
  Stream #0:0[0x1](und): Video: h264 (High) (avc1 / 0x31637661), yuv420p(tv, bt709, progressive), 720x1280 [SAR 1:1 DAR 9:16], 206 kb/s, 30 fps, 30 tbr, 15360 tbn (default)
    Metadata:
      handler_name    : VideoHandler
      vendor_id       : [0][0][0][0]
      encoder         : Lavc60.23.100 libx264
  Stream #0:1[0x2](und): Audio: aac (LC) (mp4a / 0x6134706D), 44100 Hz, stereo, fltp, 128 kb/s (default)
    Metadata:
      handler_name    : SoundHandler
      vendor_id       : [0][0][0][0]
Stream mapping:
  Stream #0:0 -> #0:0 (h264 (native) -> mjpeg (native))
Press [q] to stop, [?] for help
[swscaler @ 0x1bb5300] deprecated pixel format used, make sure you did set range correctly
[swscaler @ 0x1bfd880] deprecated pixel format used, make sure you did set range correctly
[swscaler @ 0x1bb5300] deprecated pixel format used, make sure you did set range correctly
    Last message repeated 1 times
Output #0, image2, to 'public/b7093efd-3561-483e-8096-1791740c89e2-2023-09-08 16:56:40.321051158 +0800 CST m=+8.979432736CMP_cover.jpg':
  Metadata:
    major_brand     : isom
    minor_version   : 512
    compatible_brands: isomiso2avc1mp41
    encoder         : Lavf60.10.100
  Stream #0:0(und): Video: mjpeg, yuvj420p(pc, bt709, progressive), 720x1280 [SAR 1:1 DAR 9:16], q=2-31, 200 kb/s, 30 fps, 30 tbn (default)
    Metadata:
      handler_name    : VideoHandler
      vendor_id       : [0][0][0][0]
      encoder         : Lavc60.23.100 mjpeg
    Side data:
      cpb: bitrate max/min/avg: 0/0/200000 buffer size: 0 vbv_delay: N/A
frame=    0 fps=0.0 q=3.7 size=       0kB time=00:00:00.00 bitrate=N/A speed=   0x    [image2 @ 0x1843180] The specified filename 'public/b7093efd-3561-483e-8096-1791740c89e2-2023-09-08 16:56:40.321051158 +0800 CST m=+8.979432736CMP_cover.jpg' does not contain an image sequence pattern or a pattern is invalid.
[image2 @ 0x1843180] Use a pattern such as %03d for an image sequence or use the -update option (with -frames:v 1 if needed) to write a single image.
[out#0/image2 @ 0x1843a00] video:30kB audio:0kB subtitle:0kB other streams:0kB global headers:0kB muxing overhead: unknown
frame=    1 fps=0.0 q=3.7 Lsize=N/A time=00:00:00.00 bitrate=N/A speed=   0x    
ffmpeg version N-111821-g67d392b979 Copyright (c) 2000-2023 the FFmpeg developers
  built with gcc 8 (GCC)
  configuration: --enable-shared --enable-libx264 --enable-gpl --extra-ldflags=-L/usr/local/lib
  libavutil      58. 17.100 / 58. 17.100
  libavcodec     60. 23.100 / 60. 23.100
  libavformat    60. 10.100 / 60. 10.100
  libavdevice    60.  2.101 / 60.  2.101
  libavfilter     9. 11.100 /  9. 11.100
  libswscale      7.  3.100 /  7.  3.100
  libswresample   4. 11.100 /  4. 11.100
  libpostproc    57.  2.100 / 57.  2.100
Input #0, mov,mp4,m4a,3gp,3g2,mj2, from 'public/54818a2d-d400-4176-b8ac-b2cebcfb7010-2023-09-09 17:12:42.385944479 +0800 CST m=+33.733551815':
  Metadata:
    major_brand     : mp42
    minor_version   : 0
    compatible_brands: mp42isomavc1
    creation_time   : 2010-05-11T10:32:06.000000Z
    encoder         : HandBrake 0.9.4 2009112300
  Duration: 00:00:12.61, start: 0.000000, bitrate: 202 kb/s
  Chapters:
    Chapter #0:0: start 0.000000, end 12.612000
      Metadata:
        title           : 
  Stream #0:0[0x1](und): Video: h264 (Constrained Baseline) (avc1 / 0x31637661), yuv420p(tv, smpte170m/smpte170m/bt709, progressive), 320x240, 80 kb/s, 29.65 fps, 29.97 tbr, 90k tbn (default)
    Metadata:
      creation_time   : 2010-05-11T10:32:06.000000Z
      vendor_id       : [0][0][0][0]
      encoder         : JVT/AVC Coding
  Stream #0:1[0x2](und): Audio: aac (LC) (mp4a / 0x6134706D), 48000 Hz, stereo, fltp, 115 kb/s (default)
    Metadata:
      creation_time   : 2010-05-11T10:32:06.000000Z
      vendor_id       : [0][0][0][0]
  Stream #0:2[0x3](und): Data: bin_data (text / 0x74786574), 0 kb/s
    Metadata:
      creation_time   : 2010-05-11T10:32:06.000000Z
Stream mapping:
  Stream #0:0 -> #0:0 (h264 (native) -> h264 (libx264))
  Stream #0:1 -> #0:1 (aac (native) -> aac (native))
Press [q] to stop, [?] for help
[libx264 @ 0x2502040] using cpu capabilities: MMX2 SSE2Fast SSSE3 SSE4.2 AVX FMA3 BMI2 AVX2 AVX512
[libx264 @ 0x2502040] profile High, level 1.3, 4:2:0, 8-bit
[libx264 @ 0x2502040] 264 - core 164 r3107 a8b68eb - H.264/MPEG-4 AVC codec - Copyleft 2003-2023 - http://www.videolan.org/x264.html - options: cabac=1 ref=3 deblock=1:0:0 analyse=0x3:0x113 me=hex subme=7 psy=1 psy_rd=1.00:0.00 mixed_ref=1 me_range=16 chroma_me=1 trellis=1 8x8dct=1 cqm=0 deadzone=21,11 fast_pskip=1 chroma_qp_offset=-2 threads=3 lookahead_threads=1 sliced_threads=0 nr=0 decimate=1 interlaced=0 bluray_compat=0 constrained_intra=0 bframes=3 b_pyramid=2 b_adapt=1 b_bias=0 direct=1 weightb=1 open_gop=0 weightp=2 keyint=250 keyint_min=25 scenecut=40 intra_refresh=0 rc_lookahead=40 rc=crf mbtree=1 crf=43.0 qcomp=0.60 qpmin=0 qpmax=69 qpstep=4 ip_ratio=1.40 aq=1:1.00
Output #0, mp4, to 'public/54818a2d-d400-4176-b8ac-b2cebcfb7010-2023-09-09 17:12:42.385944479 +0800 CST m=+33.733551815CMP.mp4':
  Metadata:
    major_brand     : mp42
    minor_version   : 0
    compatible_brands: mp42isomavc1
    encoder         : Lavf60.10.100
  Chapters:
    Chapter #0:0: start 0.000000, end 12.612000
      Metadata:
        title           : 
  Stream #0:0(und): Video: h264 (avc1 / 0x31637661), yuv420p(tv, smpte170m/smpte170m/bt709, progressive), 320x240, q=2-31, 29.97 fps, 30k tbn (default)
    Metadata:
      creation_time   : 2010-05-11T10:32:06.000000Z
      vendor_id       : [0][0][0][0]
      encoder         : Lavc60.23.100 libx264
    Side data:
      cpb: bitrate max/min/avg: 0/0/0 buffer size: 0 vbv_delay: N/A
  Stream #0:1(und): Audio: aac (LC) (mp4a / 0x6134706D), 48000 Hz, stereo, fltp, 128 kb/s (default)
    Metadata:
      creation_time   : 2010-05-11T10:32:06.000000Z
      vendor_id       : [0][0][0][0]
      encoder         : Lavc60.23.100 aac
frame=    0 fps=0.0 q=0.0 size=       0kB time=00:00:00.23 bitrate=   2.1kbits/s dup=4 drop=0 speed=17.5x    frame=  156 fps=0.0 q=49.0 size=       0kB time=00:00:06.80 bitrate=   0.1kbits/s dup=4 drop=0 speed=13.2x    [out#0/mp4 @ 0x24bab00] video:32kB audio:196kB subtitle:0kB other streams:0kB global headers:0kB muxing overhead: 6.695257%
frame=  378 fps=378 q=-1.0 Lsize=     244kB time=00:00:12.58 bitrate= 158.6kbits/s dup=4 drop=0 speed=12.6x    
[libx264 @ 0x2502040] frame I:2     Avg QP:41.95  size:  1278
[libx264 @ 0x2502040] frame P:137   Avg QP:44.08  size:   148
[libx264 @ 0x2502040] frame B:239   Avg QP:48.58  size:    39
[libx264 @ 0x2502040] consecutive B-frames:  8.5% 16.4% 15.9% 59.3%
[libx264 @ 0x2502040] mb I  I16..4: 15.2% 79.3%  5.5%
[libx264 @ 0x2502040] mb P  I16..4:  0.3%  0.3%  0.0%  P16..4: 21.7%  0.7%  0.3%  0.0%  0.0%    skip:76.8%
[libx264 @ 0x2502040] mb B  I16..4:  0.0%  0.0%  0.0%  B16..8:  9.1%  0.0%  0.0%  direct: 0.0%  skip:90.8%  L0:26.0% L1:74.0% BI: 0.0%
[libx264 @ 0x2502040] 8x8 transform intra:70.0% inter:95.0%
[libx264 @ 0x2502040] coded y,uvDC,uvAC intra: 35.6% 28.7% 1.2% inter: 0.7% 0.3% 0.0%
[libx264 @ 0x2502040] i16 v,h,dc,p:  6% 65%  5% 24%
[libx264 @ 0x2502040] i8 v,h,dc,ddl,ddr,vr,hd,vl,hu: 11% 34% 27%  4%  4%  3%  6%  3%  8%
[libx264 @ 0x2502040] i4 v,h,dc,ddl,ddr,vr,hd,vl,hu: 14% 37% 20%  6%  5%  5%  7%  1%  4%
[libx264 @ 0x2502040] i8c dc,h,v,p: 85% 12%  2%  1%
[libx264 @ 0x2502040] Weighted P-Frames: Y:0.7% UV:0.7%
[libx264 @ 0x2502040] ref P L0: 80.1%  3.9% 11.9%  4.0%  0.1%
[libx264 @ 0x2502040] ref B L0: 89.1%  8.7%  2.2%
[libx264 @ 0x2502040] ref B L1: 97.6%  2.4%
[libx264 @ 0x2502040] kb/s:20.37
[aac @ 0x2513680] Qavg: 1947.318
ffmpeg version N-111821-g67d392b979 Copyright (c) 2000-2023 the FFmpeg developers
  built with gcc 8 (GCC)
  configuration: --enable-shared --enable-libx264 --enable-gpl --extra-ldflags=-L/usr/local/lib
  libavutil      58. 17.100 / 58. 17.100
  libavcodec     60. 23.100 / 60. 23.100
  libavformat    60. 10.100 / 60. 10.100
  libavdevice    60.  2.101 / 60.  2.101
  libavfilter     9. 11.100 /  9. 11.100
  libswscale      7.  3.100 /  7.  3.100
  libswresample   4. 11.100 /  4. 11.100
  libpostproc    57.  2.100 / 57.  2.100
Input #0, mov,mp4,m4a,3gp,3g2,mj2, from 'public/54818a2d-d400-4176-b8ac-b2cebcfb7010-2023-09-09 17:12:42.385944479 +0800 CST m=+33.733551815CMP.mp4':
  Metadata:
    major_brand     : isom
    minor_version   : 512
    compatible_brands: isomiso2avc1mp41
    encoder         : Lavf60.10.100
  Duration: 00:00:12.61, start: 0.000000, bitrate: 158 kb/s
  Chapters:
    Chapter #0:0: start 0.000000, end 12.612000
      Metadata:
        title           : 
  Stream #0:0[0x1](und): Video: h264 (High) (avc1 / 0x31637661), yuv420p(tv, smpte170m/smpte170m/bt709, progressive), 320x240, 20 kb/s, 29.97 fps, 29.97 tbr, 30k tbn (default)
    Metadata:
      handler_name    : VideoHandler
      vendor_id       : [0][0][0][0]
      encoder         : Lavc60.23.100 libx264
  Stream #0:1[0x2](und): Audio: aac (LC) (mp4a / 0x6134706D), 48000 Hz, stereo, fltp, 127 kb/s (default)
    Metadata:
      handler_name    : SoundHandler
      vendor_id       : [0][0][0][0]
  Stream #0:2[0x3](eng): Data: bin_data (text / 0x74786574), 0 kb/s
    Metadata:
      handler_name    : SubtitleHandler
Stream mapping:
  Stream #0:0 -> #0:0 (h264 (native) -> mjpeg (native))
Press [q] to stop, [?] for help
[swscaler @ 0x12ccec0] deprecated pixel format used, make sure you did set range correctly
    Last message repeated 3 times
Output #0, image2, to 'public/54818a2d-d400-4176-b8ac-b2cebcfb7010-2023-09-09 17:12:42.385944479 +0800 CST m=+33.733551815CMP_cover.jpg':
  Metadata:
    major_brand     : isom
    minor_version   : 512
    compatible_brands: isomiso2avc1mp41
    encoder         : Lavf60.10.100
  Chapters:
    Chapter #0:0: start 0.000000, end 11.612000
      Metadata:
        title           : 
  Stream #0:0(und): Video: mjpeg, yuvj420p(pc, smpte170m/smpte170m/bt709, progressive), 320x240, q=2-31, 200 kb/s, 29.97 fps, 29.97 tbn (default)
    Metadata:
      handler_name    : VideoHandler
      vendor_id       : [0][0][0][0]
      encoder         : Lavc60.23.100 mjpeg
    Side data:
      cpb: bitrate max/min/avg: 0/0/200000 buffer size: 0 vbv_delay: N/A
frame=    0 fps=0.0 q=3.7 size=       0kB time=00:00:00.00 bitrate=N/A speed=   0x    [image2 @ 0x129f4c0] The specified filename 'public/54818a2d-d400-4176-b8ac-b2cebcfb7010-2023-09-09 17:12:42.385944479 +0800 CST m=+33.733551815CMP_cover.jpg' does not contain an image sequence pattern or a pattern is invalid.
[image2 @ 0x129f4c0] Use a pattern such as %03d for an image sequence or use the -update option (with -frames:v 1 if needed) to write a single image.
[out#0/image2 @ 0x1294380] video:7kB audio:0kB subtitle:0kB other streams:0kB global headers:0kB muxing overhead: unknown
frame=    1 fps=0.0 q=3.7 Lsize=N/A time=00:00:00.00 bitrate=N/A speed=   0x    
